#N canvas 1136 33 450 300 12;
#X obj 54 138 inlet;
#X obj 96 81 noise~;
#X obj 326 57 inlet;
#X obj 105 267 outlet~;
#X obj 120 146 lop~;
#X floatatom 143 24 5 0 0 0 - - -, f 5;
#X obj 120 118 hip~;
#X obj 105 219 *~;
#X obj 229 39 t b f;
#X obj 375 57 inlet;
#X obj 143 1 inlet;
#X obj 229 2 inlet;
#N canvas 675 525 811 499 MultiDel 0;
#X obj 124 230 inlet;
#X floatatom 325 223 5 0 0 1 - - -, f 5;
#X obj 183 400 *~ 0.25;
#X obj 454 201 t b f;
#X obj 325 201 * 5;
#X obj 183 421 outlet~;
#X obj 245 131 inlet;
#X obj 454 179 inlet;
#X obj 172 262 del;
#X obj 222 290 del;
#X obj 276 319 del;
#N canvas 977 110 450 300 env 0;
#X obj 37 37 inlet;
#X obj 38 159 line~;
#X obj 29 194 *~;
#X msg 37 105 0;
#X obj 37 63 t b b, f 14;
#X obj 30 253 outlet~;
#X obj 150 38 inlet;
#X msg 121 125 1;
#X obj 37 84 del 2;
#X obj 29 223 *~;
#X obj 37 126 pack f f;
#X text 32 15 Trigger;
#X text 150 18 Delay;
#X connect 0 0 4 0;
#X connect 1 0 2 0;
#X connect 1 0 2 1;
#X connect 2 0 9 0;
#X connect 2 0 9 1;
#X connect 3 0 10 0;
#X connect 4 0 8 0;
#X connect 4 1 7 0;
#X connect 6 0 10 1;
#X connect 7 0 1 0;
#X connect 8 0 3 0;
#X connect 9 0 5 0;
#X connect 10 0 1 0;
#X restore 123 355 pd env;
#X obj 402 283 *;
#X text 455 160 Decay;
#N canvas 977 110 450 300 env 0;
#X obj 37 37 inlet;
#X obj 38 159 line~;
#X obj 29 194 *~;
#X msg 37 105 0;
#X obj 37 63 t b b, f 14;
#X obj 30 253 outlet~;
#X obj 150 38 inlet;
#X msg 121 125 1;
#X obj 37 84 del 2;
#X obj 29 223 *~;
#X obj 37 126 pack f f;
#X text 32 15 Trigger;
#X text 150 18 Delay;
#X connect 0 0 4 0;
#X connect 1 0 2 0;
#X connect 1 0 2 1;
#X connect 2 0 9 0;
#X connect 2 0 9 1;
#X connect 3 0 10 0;
#X connect 4 0 8 0;
#X connect 4 1 7 0;
#X connect 6 0 10 1;
#X connect 7 0 1 0;
#X connect 8 0 3 0;
#X connect 9 0 5 0;
#X connect 10 0 1 0;
#X restore 172 356 pd env;
#N canvas 977 110 450 300 env 0;
#X obj 37 37 inlet;
#X obj 38 159 line~;
#X obj 29 194 *~;
#X msg 37 105 0;
#X obj 37 63 t b b, f 14;
#X obj 30 253 outlet~;
#X obj 150 38 inlet;
#X msg 121 125 1;
#X obj 37 84 del 2;
#X obj 29 223 *~;
#X obj 37 126 pack f f;
#X text 32 15 Trigger;
#X text 150 18 Delay;
#X connect 0 0 4 0;
#X connect 1 0 2 0;
#X connect 1 0 2 1;
#X connect 2 0 9 0;
#X connect 2 0 9 1;
#X connect 3 0 10 0;
#X connect 4 0 8 0;
#X connect 4 1 7 0;
#X connect 6 0 10 1;
#X connect 7 0 1 0;
#X connect 8 0 3 0;
#X connect 9 0 5 0;
#X connect 10 0 1 0;
#X restore 222 355 pd env;
#N canvas 977 110 450 300 env 0;
#X obj 37 37 inlet;
#X obj 38 159 line~;
#X obj 29 194 *~;
#X msg 37 105 0;
#X obj 37 63 t b b, f 14;
#X obj 30 253 outlet~;
#X obj 150 38 inlet;
#X msg 121 125 1;
#X obj 37 84 del 2;
#X obj 29 223 *~;
#X obj 37 126 pack f f;
#X text 32 15 Trigger;
#X text 150 18 Delay;
#X connect 0 0 4 0;
#X connect 1 0 2 0;
#X connect 1 0 2 1;
#X connect 2 0 9 0;
#X connect 2 0 9 1;
#X connect 3 0 10 0;
#X connect 4 0 8 0;
#X connect 4 1 7 0;
#X connect 6 0 10 1;
#X connect 7 0 1 0;
#X connect 8 0 3 0;
#X connect 9 0 5 0;
#X connect 10 0 1 0;
#X restore 276 355 pd env;
#X text 119 210 Trigger;
#X floatatom 456 243 5 0 0 0 - - -, f 5;
#X text 247 112 Delay;
#X connect 0 0 11 0;
#X connect 0 0 8 0;
#X connect 1 0 11 1;
#X connect 1 0 12 0;
#X connect 1 0 15 1;
#X connect 1 0 14 1;
#X connect 2 0 5 0;
#X connect 3 0 12 0;
#X connect 3 1 18 0;
#X connect 4 0 1 0;
#X connect 6 0 4 0;
#X connect 6 0 8 1;
#X connect 6 0 10 1;
#X connect 6 0 9 1;
#X connect 7 0 3 0;
#X connect 8 0 14 0;
#X connect 8 0 9 0;
#X connect 9 0 15 0;
#X connect 9 0 10 0;
#X connect 10 0 16 0;
#X connect 11 0 2 0;
#X connect 12 0 16 1;
#X connect 14 0 2 0;
#X connect 15 0 2 0;
#X connect 16 0 2 0;
#X connect 18 0 12 1;
#X restore 105 179 pd MultiDel Env;
#X text 51 118 Trigger;
#X text 375 37 Decay;
#X text 326 37 Delay;
#X obj 185 84 +;
#X text 210 -20 Filter Width;
#X text 122 -20 Filet Cutoff;
#X floatatom 185 104 5 0 0 0 - - -, f 5;
#X floatatom 229 21 5 0 0 0 - - -, f 5;
#X floatatom 326 77 5 0 0 0 - - -, f 5;
#X floatatom 375 78 5 0 0 0 - - -, f 5;
#X obj 69 168 bng 15 250 50 0 empty empty empty 17 7 0 10 #fcfcfc #000000
#000000;
#X obj 105 242 *~;
#X obj 424 56 inlet;
#X floatatom 424 77 5 0 1 0 - - -, f 5;
#X text 424 36 Volume;
#X connect 0 0 23 0;
#X connect 1 0 6 0;
#X connect 2 0 21 0;
#X connect 4 0 7 1;
#X connect 5 0 6 1;
#X connect 5 0 16 0;
#X connect 6 0 4 0;
#X connect 7 0 24 0;
#X connect 8 0 16 0;
#X connect 8 1 16 1;
#X connect 9 0 22 0;
#X connect 10 0 5 0;
#X connect 11 0 20 0;
#X connect 12 0 7 0;
#X connect 16 0 19 0;
#X connect 19 0 4 1;
#X connect 20 0 8 0;
#X connect 21 0 12 1;
#X connect 22 0 12 2;
#X connect 23 0 12 0;
#X connect 24 0 3 0;
#X connect 25 0 26 0;
#X connect 26 0 24 1;
