#N canvas 671 25 1121 635 12;
#X obj 136 78 noise~;
#X floatatom 416 54 5 0 2000 0 - - -, f 5;
#X obj 173 232 *~;
#X floatatom 352 55 5 0 2500 0 - - -, f 5;
#X obj 308 30 bng 15 250 50 0 empty empty empty 17 7 0 10 #fcfcfc #000000
#000000;
#X obj 173 105 *~;
#X obj 173 171 freeverb~;
#X obj 202 249 delread~ \$0-del 5;
#X obj 36 251 delwrite~ \$0-del 10;
#X obj 299 13 inlet;
#X obj 352 36 inlet;
#X obj 416 32 inlet;
#X obj 203 537 outlet~;
#X obj 416 91 *~ 1;
#X text 352 16 Decay;
#X text 417 11 Pitch;
#X text 294 -8 Trigger;
#X obj 859 134 inlet;
#X floatatom 859 153 5 0 1 0 - - -, f 5;
#X text 857 115 Volume;
#N canvas 897 25 305 203 Noise 0;
#X obj 69 58 inlet;
#X obj 114 58 inlet;
#X obj 69 136 line~;
#X msg 69 117 1 \, 0.6 \$1;
#X obj 69 98 * 0.5;
#X obj 69 155 outlet~;
#X obj 69 77 pack f f;
#X connect 0 0 6 0;
#X connect 1 0 6 1;
#X connect 2 0 5 0;
#X connect 3 0 2 0;
#X connect 4 0 3 0;
#X connect 6 0 4 0;
#X restore 188 78 pd Noise Env;
#N canvas 839 239 450 300 resFilters 0;
#X obj 38 63 inlet~;
#X obj 38 196 biquad~ 1.86507 -0.892661 0.894294 -1.78859 0.894294
;
#X obj 38 124 biquad~ 0.88843 -0.568945 0.614344 -1.22869 0.614344
;
#X obj 38 161 biquad~ 0.88843 -0.568945 0.614344 -1.22869 0.614344
;
#X obj 38 88 biquad~ 0.638282 -0.176456 0.134544 0.269087 0.134544
;
#X text 223 178 1200Hz resonant hipass \, Q=1.5;
#X obj 38 216 outlet~;
#X text 205 71 7000Hz Resonant Lowpass \, Q=0.6;
#X text 214 106 6800Hz Resonant Hipass \, Q=1.5;
#X text 216 142 6800Hz Resonant Hipass \, Q=1.5;
#X connect 0 0 4 0;
#X connect 1 0 6 0;
#X connect 2 0 3 0;
#X connect 3 0 1 0;
#X connect 4 0 2 0;
#X restore 173 128 pd resFilters;
#N canvas 897 224 305 203 Volume 0;
#X obj 74 76 f 250;
#X obj 56 49 inlet;
#X obj 127 50 inlet;
#X obj 74 119 vline~;
#X obj 74 140 outlet~;
#X msg 74 97 1 2 \, 0.4 \$1 2 \, 0 \$1 \$1;
#X connect 0 0 5 0;
#X connect 1 0 0 0;
#X connect 2 0 0 1;
#X connect 3 0 4 0;
#X connect 5 0 3 0;
#X restore 283 188 pd Volume Env;
#X obj 203 448 lop~;
#X msg 627 37 22000;
#X obj 627 8 loadbang;
#N canvas 0 22 450 300 SizzleOSC 0;
#X obj 327 -92 inlet;
#X obj 60 13 phasor~;
#X obj 60 32 expr~ $v1 > 0.55;
#X obj 333 103 *~ 0.9;
#X obj 165 -6 * 1.342;
#X obj 165 13 phasor~;
#X obj 165 32 expr~ $v1 > 0.55;
#X obj 269 13 phasor~;
#X obj 269 32 expr~ $v1 > 0.55;
#X obj 374 11 phasor~;
#X obj 374 32 expr~ $v1 > 0.55;
#X obj 478 11 phasor~;
#X obj 478 32 expr~ $v1 > 0.55;
#X obj 583 11 phasor~;
#X obj 583 32 expr~ $v1 > 0.55;
#X obj 269 -6 * 1.2312;
#X obj 374 -8 * 1.6532;
#X obj 478 -8 * 1.9523;
#X obj 583 -8 * 2.1523;
#X obj 333 124 outlet~;
#X connect 0 0 4 0;
#X connect 0 0 18 0;
#X connect 0 0 17 0;
#X connect 0 0 16 0;
#X connect 0 0 15 0;
#X connect 0 0 1 0;
#X connect 1 0 2 0;
#X connect 2 0 3 0;
#X connect 3 0 19 0;
#X connect 4 0 5 0;
#X connect 5 0 6 0;
#X connect 6 0 3 0;
#X connect 7 0 8 0;
#X connect 8 0 3 0;
#X connect 9 0 10 0;
#X connect 10 0 3 0;
#X connect 11 0 12 0;
#X connect 12 0 3 0;
#X connect 13 0 14 0;
#X connect 14 0 3 0;
#X connect 15 0 7 0;
#X connect 16 0 9 0;
#X connect 17 0 11 0;
#X connect 18 0 13 0;
#X restore 416 72 pd SizzleOSC;
#X text 586 74 LP Filter;
#X obj 586 97 inlet;
#X floatatom 594 167 5 0 0 0 - - -, f 5;
#X obj 594 146 - 220;
#X obj 540 125 hsl 128 15 220 22000 1 0 empty empty empty -2 -8 0 10
#fcfcfc #000000 #000000 12700 1;
#X obj 739 97 inlet;
#X floatatom 747 167 5 0 0 0 - - -, f 5;
#X obj 747 146 - 220;
#X obj 693 125 hsl 128 15 220 22000 1 0 empty empty empty -2 -8 0 10
#fcfcfc #000000 #000000 0 1;
#X text 722 74 HP Filter;
#X obj 203 475 hip~;
#X obj 221 352 wrap~;
#X obj 372 320 tgl 15 0 empty empty empty 17 7 0 10 #fcfcfc #000000
#000000 0 1;
#X obj 372 341 sel 0;
#X obj 165 406 spigot~;
#X obj 221 406 spigot~;
#X msg 365 365 1;
#X msg 394 366 0;
#X msg 303 366 0;
#X msg 332 365 1;
#X obj 303 344 loadbang;
#X obj 221 377 *~ 0.25;
#X obj 346 270 gate 2;
#X msg 386 294 1;
#X msg 346 293 0;
#X obj 970 134 tgl 29 0 empty empty empty 17 7 0 10 #fcfcfc #000000
#000000 0 1;
#X obj 349 248 + 1, f 4;
#X obj 970 113 inlet;
#X text 964 91 Distortion;
#X obj 174 306 *~ 1;
#X obj 203 505 *~ 0;
#X msg 861 86 0;
#X connect 0 0 5 0;
#X connect 1 0 26 0;
#X connect 2 0 8 0;
#X connect 2 0 56 0;
#X connect 3 0 22 1;
#X connect 3 0 20 1;
#X connect 4 0 22 0;
#X connect 4 0 20 0;
#X connect 4 0 49 1;
#X connect 5 0 21 0;
#X connect 6 0 2 0;
#X connect 6 1 2 0;
#X connect 7 0 56 0;
#X connect 9 0 4 0;
#X connect 10 0 3 0;
#X connect 11 0 1 0;
#X connect 13 0 21 0;
#X connect 17 0 18 0;
#X connect 18 0 57 1;
#X connect 20 0 5 1;
#X connect 21 0 6 0;
#X connect 22 0 2 1;
#X connect 23 0 37 0;
#X connect 24 0 31 0;
#X connect 25 0 24 0;
#X connect 25 0 58 0;
#X connect 26 0 13 0;
#X connect 28 0 31 0;
#X connect 29 0 23 1;
#X connect 30 0 29 0;
#X connect 31 0 30 0;
#X connect 32 0 35 0;
#X connect 33 0 37 1;
#X connect 34 0 33 0;
#X connect 35 0 34 0;
#X connect 37 0 57 0;
#X connect 38 0 48 0;
#X connect 39 0 40 0;
#X connect 39 0 41 1;
#X connect 40 0 43 0;
#X connect 40 1 44 0;
#X connect 41 0 23 0;
#X connect 42 0 23 0;
#X connect 43 0 42 1;
#X connect 44 0 42 1;
#X connect 45 0 41 1;
#X connect 46 0 42 1;
#X connect 47 0 45 0;
#X connect 47 0 46 0;
#X connect 48 0 42 0;
#X connect 49 0 51 0;
#X connect 49 1 50 0;
#X connect 50 0 39 0;
#X connect 51 0 39 0;
#X connect 52 0 53 0;
#X connect 53 0 49 0;
#X connect 54 0 52 0;
#X connect 56 0 41 0;
#X connect 56 0 38 0;
#X connect 57 0 12 0;
#X connect 58 0 18 0;
