#N canvas 995 37 748 484 12;
#X obj 51 25 inlet~;
#X obj 187 783 outlet~;
#X floatatom 177 391 5 0 5000 0 - - -, f 5;
#X text 162 368 delay time;
#X obj 338 457 hsl 128 15 0 1 0 0 empty empty empty -2 -8 0 10 #fcfcfc
#000000 #000000 0 1;
#X obj 53 481 *~;
#X obj 177 159 inlet;
#X obj 347 417 inlet;
#X text 99 2 Right;
#X obj 30 783 outlet~;
#X obj 99 25 inlet~;
#X text 53 2 left;
#X text 346 395 feedback;
#X obj 222 484 *~;
#X obj 382 291 r tempo;
#X obj 224 159 inlet;
#X text 179 136 free;
#X text 225 135 sync;
#X obj 383 323 f;
#X obj 231 334 *;
#X msg 231 305 1;
#X msg 155 306 0.5;
#X msg 114 306 0.25;
#X msg 262 304 2;
#X msg 293 304 3;
#X msg 324 303 4;
#X msg 187 305 0.75;
#X obj 223 224 sel 0 1 2 3 4 5 6;
#X floatatom 310 368 5 0 0 0 - - -, f 5;
#X floatatom 362 367 5 0 0 0 - - -, f 5;
#X obj 336 338 bng 15 250 50 0 empty empty empty 17 7 0 10 #fcfcfc
#000000 #000000;
#X obj 457 604 lop~;
#X floatatom 661 410 5 0 0 0 - - -, f 5;
#X obj 457 576 hip~;
#X obj 747 425 t b f;
#X obj 661 387 inlet;
#X obj 747 388 inlet;
#X obj 703 470 +;
#X text 728 366 Filter Width;
#X text 640 366 Filet Cutoff;
#X floatatom 703 490 5 0 0 0 - - -, f 5;
#X floatatom 747 407 5 0 0 0 - - -, f 5;
#X obj 418 604 lop~;
#X obj 418 576 hip~;
#X obj 661 438 -220;
#X obj 63 77 r~ feedbacksignalL2;
#X obj 240 76 r~ feedbacksignalR2;
#X obj 227 109 delwrite~ dlybuffR2 5000;
#X obj 50 110 delwrite~ dlybuffL2 5000;
#X obj 32 420 delread~ dlybuffL2 5000, f 14;
#X obj 188 419 delread~ dlybuffR2 5000, f 14;
#X obj 222 508 s~ feedbacksignalR2;
#X obj 53 508 s~ feedbacksignalL2;
#X connect 0 0 48 0;
#X connect 2 0 49 0;
#X connect 2 0 50 0;
#X connect 4 0 5 1;
#X connect 4 0 13 1;
#X connect 5 0 52 0;
#X connect 6 0 2 0;
#X connect 7 0 4 0;
#X connect 10 0 47 0;
#X connect 13 0 51 0;
#X connect 14 0 18 0;
#X connect 15 0 27 0;
#X connect 18 0 19 1;
#X connect 18 0 29 0;
#X connect 18 0 30 0;
#X connect 19 0 2 0;
#X connect 19 0 28 0;
#X connect 20 0 19 0;
#X connect 21 0 19 0;
#X connect 22 0 19 0;
#X connect 23 0 19 0;
#X connect 24 0 19 0;
#X connect 25 0 19 0;
#X connect 26 0 19 0;
#X connect 27 0 22 0;
#X connect 27 1 21 0;
#X connect 27 2 26 0;
#X connect 27 3 20 0;
#X connect 27 4 23 0;
#X connect 27 5 24 0;
#X connect 27 6 25 0;
#X connect 30 0 19 0;
#X connect 31 0 1 0;
#X connect 32 0 37 0;
#X connect 32 0 44 0;
#X connect 33 0 31 0;
#X connect 34 0 37 0;
#X connect 34 1 37 1;
#X connect 35 0 32 0;
#X connect 36 0 41 0;
#X connect 37 0 40 0;
#X connect 40 0 31 1;
#X connect 40 0 42 1;
#X connect 41 0 34 0;
#X connect 42 0 9 0;
#X connect 43 0 42 0;
#X connect 44 0 43 1;
#X connect 44 0 33 1;
#X connect 45 0 48 0;
#X connect 46 0 47 0;
#X connect 49 0 5 0;
#X connect 49 0 43 0;
#X connect 50 0 13 0;
#X connect 50 0 33 0;
