#N canvas 699 368 830 628 12;
#X obj 20 113 cnv 15 365 254 empty empty empty 20 12 0 14 #e0e0e0 #404040
0;
#X obj 390 275 cnv 15 246 329 empty empty empty 20 12 0 14 #e0e0e0
#404040 0;
#X floatatom 142 61 5 1 2500 0 - - -, f 5;
#X floatatom 223 60 5 0 10 0 - - -, f 5;
#X obj 157 226 *~ 1;
#X obj 157 247 phasor~;
#X obj 85 66 bng 15 250 50 0 empty empty empty 17 7 0 10 #fcfcfc #000000
#000000;
#X obj 105 248 noise~;
#X floatatom 371 62 5 0 100 0 - - -, f 5;
#X obj 231 247 *~ 1.5;
#X obj 149 280 vcf~ 0.5;
#X obj 171 317 *~;
#X obj 303 286 osc~;
#X floatatom 463 62 5 0 0 0 - - -, f 5;
#X obj 303 264 *~ 1;
#X obj 84 42 inlet;
#X obj 142 42 inlet;
#X obj 223 40 inlet;
#X text 371 21 filterScale;
#X obj 371 42 inlet;
#X obj 437 573 outlet~;
#X obj 463 43 inlet;
#X text 79 19 Trigger;
#X text 142 20 Decay Time;
#X obj 142 156 f 0;
#X obj 309 61 tgl 29 0 empty empty empty 17 7 0 10 #fcfcfc #000000
#000000 0 1;
#X obj 303 41 inlet;
#X text 296 19 ENV Double;
#X obj 506 371 tgl 15 0 empty empty empty 17 7 0 10 #fcfcfc #000000
#000000 0 1;
#X obj 518 398 sel 0;
#X obj 410 451 spigot~;
#X obj 460 450 spigot~;
#X msg 511 422 1;
#X msg 540 423 0;
#X msg 449 423 0;
#X msg 478 422 1;
#X obj 449 401 loadbang;
#X obj 408 364 *~ 0.25;
#X obj 501 308 gate 2;
#X msg 524 337 1;
#X msg 495 337 0;
#X obj 529 63 tgl 29 0 empty empty empty 17 7 0 10 #fcfcfc #000000
#000000 0 1;
#X obj 504 286 + 1, f 4;
#X obj 529 42 inlet;
#X text 523 20 Distortion;
#X obj 326 164 gate 2;
#X msg 349 193 1;
#X msg 320 193 0;
#X obj 329 142 + 1, f 4;
#X text 463 22 Pitch;
#X text 214 19 Click Pitch;
#X obj 436 485 lop~;
#X text 623 19 LP Filter;
#X obj 623 42 inlet;
#X floatatom 631 112 5 0 0 0 - - -, f 5;
#X obj 631 91 - 220;
#X obj 577 70 hsl 128 15 220 22000 1 0 empty empty empty -2 -8 0 10
#fcfcfc #000000 #000000 12700 1;
#X obj 776 42 inlet;
#X floatatom 784 112 5 0 0 0 - - -, f 5;
#X obj 784 91 - 220;
#X obj 730 70 hsl 128 15 220 22000 1 0 empty empty empty -2 -8 0 10
#fcfcfc #000000 #000000 0 1;
#X text 759 19 HP Filter;
#X obj 436 508 hip~;
#X obj 580 -43 loadbang;
#X msg 580 -18 22000;
#N canvas 704 572 450 300 PitchEnv 0;
#X obj 33 65 inlet;
#X obj 33 107 vline~;
#X obj 29 246 mtof~;
#X msg 33 87 1 \, 0.5 5 \, 0 \$1 5;
#X obj 104 138 *~ 80;
#X obj 104 159 +~ 29;
#X obj 33 128 *~;
#X obj 29 267 outlet~;
#X obj 166 67 inlet;
#X obj 176 138 tgl 15 0 empty empty empty 17 7 0 10 #fcfcfc #000000
#000000 0 1;
#X obj 188 165 sel 0;
#X obj 29 209 spigot~;
#X obj 79 208 spigot~;
#X msg 181 189 1;
#X msg 210 190 0;
#X msg 12 177 0;
#X msg 52 176 1;
#X obj 23 155 loadbang;
#X connect 0 0 3 0;
#X connect 1 0 6 0;
#X connect 1 0 6 1;
#X connect 2 0 7 0;
#X connect 3 0 1 0;
#X connect 4 0 5 0;
#X connect 4 0 12 0;
#X connect 5 0 11 0;
#X connect 5 0 12 0;
#X connect 6 0 4 0;
#X connect 8 0 9 0;
#X connect 9 0 10 0;
#X connect 9 0 11 1;
#X connect 10 0 13 0;
#X connect 10 1 14 0;
#X connect 11 0 2 0;
#X connect 12 0 2 0;
#X connect 13 0 12 1;
#X connect 14 0 12 1;
#X connect 15 0 11 1;
#X connect 16 0 12 1;
#X connect 17 0 15 0;
#X connect 17 0 16 0;
#X restore 220 189 pd PitchEnv;
#N canvas 0 23 450 300 VolEnv 0;
#X obj 125 167 vline~;
#X obj 125 195 *~;
#X msg 125 143 0.5 \, 1 5 \, 0.5 60 5 \, 0 \$1 65;
#X obj 125 123 inlet;
#X obj 125 220 outlet~;
#X connect 0 0 1 0;
#X connect 0 0 1 1;
#X connect 1 0 4 0;
#X connect 2 0 0 0;
#X connect 3 0 2 0;
#X restore 27 281 pd VolEnv;
#X obj 436 542 *~;
#X obj 887 69 inlet;
#X floatatom 887 95 5 0 1 0 - - -, f 5;
#X text 886 35 Volume;
#X obj 403 323 wrap~;
#X text 511 478 Destortion gate;
#X text 27 125 Noise Gen;
#X obj 793 246 *;
#X obj 846 202 r k_mV;
#X floatatom 846 231 5 0 0 0 - - -, f 5;
#X floatatom 793 275 5 0 0 0 - - -, f 5;
#X obj 817 224 bng 15 250 50 0 empty empty empty 17 7 0 10 #fcfcfc
#000000 #000000;
#X connect 2 0 24 1;
#X connect 3 0 4 1;
#X connect 4 0 5 0;
#X connect 5 0 10 0;
#X connect 6 0 24 0;
#X connect 6 0 38 1;
#X connect 6 0 45 1;
#X connect 7 0 10 0;
#X connect 8 0 9 1;
#X connect 9 0 10 1;
#X connect 10 1 11 1;
#X connect 11 0 30 0;
#X connect 11 0 71 0;
#X connect 12 0 11 1;
#X connect 13 0 14 1;
#X connect 14 0 12 0;
#X connect 15 0 6 0;
#X connect 16 0 2 0;
#X connect 17 0 3 0;
#X connect 19 0 8 0;
#X connect 21 0 13 0;
#X connect 24 0 66 0;
#X connect 24 0 65 0;
#X connect 25 0 48 0;
#X connect 26 0 25 0;
#X connect 28 0 29 0;
#X connect 28 0 30 1;
#X connect 29 0 32 0;
#X connect 29 1 33 0;
#X connect 30 0 51 0;
#X connect 31 0 51 0;
#X connect 32 0 31 1;
#X connect 33 0 31 1;
#X connect 34 0 30 1;
#X connect 35 0 31 1;
#X connect 36 0 34 0;
#X connect 36 0 35 0;
#X connect 37 0 31 0;
#X connect 38 0 40 0;
#X connect 38 1 39 0;
#X connect 39 0 28 0;
#X connect 40 0 28 0;
#X connect 41 0 42 0;
#X connect 42 0 38 0;
#X connect 43 0 41 0;
#X connect 45 0 47 0;
#X connect 45 1 46 0;
#X connect 46 0 65 1;
#X connect 47 0 65 1;
#X connect 48 0 45 0;
#X connect 51 0 62 0;
#X connect 53 0 56 0;
#X connect 54 0 51 1;
#X connect 55 0 54 0;
#X connect 56 0 55 0;
#X connect 57 0 60 0;
#X connect 58 0 62 1;
#X connect 59 0 58 0;
#X connect 60 0 59 0;
#X connect 62 0 67 0;
#X connect 63 0 64 0;
#X connect 64 0 56 0;
#X connect 65 0 9 0;
#X connect 65 0 14 0;
#X connect 65 0 4 0;
#X connect 66 0 11 0;
#X connect 67 0 20 0;
#X connect 68 0 69 0;
#X connect 69 0 74 0;
#X connect 71 0 37 0;
#X connect 74 0 67 1;
#X connect 74 0 77 0;
#X connect 75 0 76 0;
#X connect 76 0 74 1;
#X connect 76 0 78 0;
#X connect 78 0 74 0;
