#N canvas 0 25 1792 1067 12;
#X text 152 228 Vol Sliders;
#X obj 63 381 gate;
#X obj 88 405 gate;
#X obj 121 381 gate;
#X obj 146 405 gate;
#X obj 179 382 gate;
#X obj 204 404 gate;
#X obj 237 381 gate;
#X obj 262 405 gate;
#X obj 297 382 gate;
#X obj 173 256 ctlin;
#X msg 62 356 1;
#X msg 64 328 0;
#X msg 92 356 1;
#X msg 120 356 1;
#X msg 150 356 1;
#X msg 120 356 1;
#X msg 150 356 1;
#X msg 178 356 1;
#X msg 208 356 1;
#X msg 236 356 1;
#X msg 266 356 1;
#X msg 236 356 1;
#X msg 266 356 1;
#X msg 297 356 1;
#X msg 297 356 1;
#X msg 92 328 0;
#X msg 122 328 0;
#X msg 150 328 0;
#X msg 177 328 0;
#X msg 205 328 0;
#X msg 235 328 0;
#X msg 263 328 0;
#X msg 297 328 0;
#X obj 457 381 gate;
#X obj 482 405 gate;
#X obj 515 381 gate;
#X obj 540 405 gate;
#X obj 573 382 gate;
#X obj 598 404 gate;
#X obj 631 381 gate;
#X obj 656 405 gate;
#X obj 567 256 ctlin;
#X msg 456 356 1;
#X msg 458 331 0;
#X msg 486 356 1;
#X msg 514 356 1;
#X msg 544 356 1;
#X msg 514 356 1;
#X msg 544 356 1;
#X msg 572 356 1;
#X msg 602 356 1;
#X msg 630 356 1;
#X msg 660 356 1;
#X msg 630 356 1;
#X msg 660 356 1;
#X msg 486 331 0;
#X msg 516 331 0;
#X msg 544 331 0;
#X msg 571 331 0;
#X msg 599 331 0;
#X msg 629 331 0;
#X msg 657 331 0;
#X text 534 231 Param Sliders;
#X obj 804 383 gate;
#X obj 829 407 gate;
#X obj 862 383 gate;
#X obj 887 407 gate;
#X obj 920 384 gate;
#X obj 945 406 gate;
#X obj 978 383 gate;
#X obj 1003 407 gate;
#X msg 803 358 1;
#X msg 805 333 0;
#X msg 833 358 1;
#X msg 861 358 1;
#X msg 891 358 1;
#X msg 861 358 1;
#X msg 891 358 1;
#X msg 919 358 1;
#X msg 949 358 1;
#X msg 977 358 1;
#X msg 1007 358 1;
#X msg 977 358 1;
#X msg 1007 358 1;
#X msg 833 333 0;
#X msg 863 333 0;
#X msg 891 333 0;
#X msg 918 333 0;
#X msg 946 333 0;
#X msg 976 333 0;
#X msg 1004 333 0;
#X text 902 153 Pads;
#X obj 895 180 notein;
#X obj 820 297 sel 40 41 42 43 36 37 38 39;
#X obj 804 430 s 49pad1;
#X obj 829 457 s 49pad2;
#X obj 862 430 s 49pad3;
#X obj 887 457 s 49pad4;
#X obj 920 430 s 49pad5;
#X obj 945 457 s 49pad6;
#X obj 979 430 s 49pad7;
#X obj 1004 457 s 49pad8;
#X obj 912 267 i;
#X obj 909 242 delay 1;
#X obj 924 214 clip 0 1;
#X obj 495 455 pack i i i i i i i i;
#X obj 495 439 bng 15 250 50 0 empty empty empty 17 7 0 10 #fcfcfc
#000000 #000000;
#X obj 88 295 sel 20 21 22 23 25 26 27 28 30;
#X obj 473 295 sel 31 33 34 56 41 42 43 45;
#X obj 529 507 ctlin;
#X obj 545 536 sel 15 24;
#X obj 457 613 gate;
#X msg 543 580 1;
#X msg 575 580 0;
#X obj 634 612 gate;
#X msg 615 581 1;
#X msg 647 581 0;
#X obj 432 732 gate;
#X obj 457 756 gate;
#X obj 490 732 gate;
#X obj 515 756 gate;
#X obj 548 733 gate;
#X obj 573 755 gate;
#X obj 606 732 gate;
#X msg 431 707 1;
#X msg 433 679 0;
#X msg 461 707 1;
#X msg 489 707 1;
#X msg 519 707 1;
#X msg 489 707 1;
#X msg 519 707 1;
#X msg 547 707 1;
#X msg 577 707 1;
#X msg 605 707 1;
#X msg 605 707 1;
#X msg 461 679 0;
#X msg 491 679 0;
#X msg 519 679 0;
#X msg 546 679 0;
#X msg 574 679 0;
#X msg 604 679 0;
#X obj 457 646 sel 0 14 32 39 49 62 127;
#X obj 648 732 gate;
#X obj 673 756 gate;
#X msg 647 707 1;
#X msg 649 679 0;
#X msg 677 707 1;
#X msg 677 679 0;
#X obj 646 649 sel 0 14;
#X obj 425 792 s 49K1P;
#X obj 450 819 s 49K2P;
#X obj 483 792 s 49SN1P;
#X obj 508 819 s 49SN2P;
#X obj 541 792 s 49CL1P;
#X obj 566 819 s 49CL2P;
#X obj 600 792 s 49CY1P;
#X obj 625 819 s 49CY2P;
#X obj 659 791 s 49SYP;
#X text 574 505 Drum Select;
#X obj 60 434 s 49K1V;
#X obj 85 461 s 49K2V;
#X obj 118 434 s 49SN1V;
#X obj 143 461 s 49SN2V;
#X obj 176 434 s 49CL1V;
#X obj 235 434 s 49CY1V;
#X obj 294 432 s 49SYV;
#X obj 202 461 s 49CL2V;
#X obj 260 461 s 49CY2V;
#X connect 1 0 160 0;
#X connect 2 0 161 0;
#X connect 3 0 162 0;
#X connect 4 0 163 0;
#X connect 5 0 164 0;
#X connect 6 0 167 0;
#X connect 7 0 165 0;
#X connect 8 0 168 0;
#X connect 9 0 166 0;
#X connect 10 0 1 1;
#X connect 10 0 9 1;
#X connect 10 0 8 1;
#X connect 10 0 7 1;
#X connect 10 0 6 1;
#X connect 10 0 5 1;
#X connect 10 0 4 1;
#X connect 10 0 3 1;
#X connect 10 0 2 1;
#X connect 10 1 108 0;
#X connect 11 0 1 0;
#X connect 12 0 1 0;
#X connect 13 0 2 0;
#X connect 16 0 3 0;
#X connect 17 0 4 0;
#X connect 18 0 5 0;
#X connect 19 0 6 0;
#X connect 22 0 7 0;
#X connect 23 0 8 0;
#X connect 24 0 9 0;
#X connect 25 0 9 0;
#X connect 26 0 2 0;
#X connect 27 0 3 0;
#X connect 28 0 4 0;
#X connect 29 0 5 0;
#X connect 30 0 6 0;
#X connect 31 0 7 0;
#X connect 32 0 8 0;
#X connect 33 0 9 0;
#X connect 34 0 106 0;
#X connect 35 0 106 1;
#X connect 35 0 107 0;
#X connect 36 0 106 2;
#X connect 36 0 107 0;
#X connect 37 0 106 3;
#X connect 37 0 107 0;
#X connect 38 0 106 4;
#X connect 38 0 107 0;
#X connect 39 0 106 5;
#X connect 39 0 107 0;
#X connect 40 0 106 6;
#X connect 40 0 107 0;
#X connect 41 0 106 7;
#X connect 41 0 107 0;
#X connect 42 0 34 1;
#X connect 42 0 41 1;
#X connect 42 0 40 1;
#X connect 42 0 39 1;
#X connect 42 0 38 1;
#X connect 42 0 37 1;
#X connect 42 0 36 1;
#X connect 42 0 35 1;
#X connect 42 1 109 0;
#X connect 43 0 34 0;
#X connect 44 0 34 0;
#X connect 45 0 35 0;
#X connect 48 0 36 0;
#X connect 49 0 37 0;
#X connect 50 0 38 0;
#X connect 51 0 39 0;
#X connect 54 0 40 0;
#X connect 55 0 41 0;
#X connect 56 0 35 0;
#X connect 57 0 36 0;
#X connect 58 0 37 0;
#X connect 59 0 38 0;
#X connect 60 0 39 0;
#X connect 61 0 40 0;
#X connect 62 0 41 0;
#X connect 64 0 95 0;
#X connect 65 0 96 0;
#X connect 66 0 97 0;
#X connect 67 0 98 0;
#X connect 68 0 99 0;
#X connect 69 0 100 0;
#X connect 70 0 101 0;
#X connect 71 0 102 0;
#X connect 72 0 64 0;
#X connect 73 0 64 0;
#X connect 74 0 65 0;
#X connect 77 0 66 0;
#X connect 78 0 67 0;
#X connect 79 0 68 0;
#X connect 80 0 69 0;
#X connect 83 0 70 0;
#X connect 84 0 71 0;
#X connect 85 0 65 0;
#X connect 86 0 66 0;
#X connect 87 0 67 0;
#X connect 88 0 68 0;
#X connect 89 0 69 0;
#X connect 90 0 70 0;
#X connect 91 0 71 0;
#X connect 93 0 94 0;
#X connect 93 0 104 0;
#X connect 93 1 105 0;
#X connect 94 0 72 0;
#X connect 94 0 85 0;
#X connect 94 0 86 0;
#X connect 94 0 87 0;
#X connect 94 0 88 0;
#X connect 94 0 89 0;
#X connect 94 0 90 0;
#X connect 94 0 91 0;
#X connect 94 1 74 0;
#X connect 94 1 73 0;
#X connect 94 1 86 0;
#X connect 94 1 87 0;
#X connect 94 1 88 0;
#X connect 94 1 89 0;
#X connect 94 1 90 0;
#X connect 94 1 91 0;
#X connect 94 2 77 0;
#X connect 94 2 73 0;
#X connect 94 2 85 0;
#X connect 94 2 87 0;
#X connect 94 2 88 0;
#X connect 94 2 89 0;
#X connect 94 2 90 0;
#X connect 94 2 91 0;
#X connect 94 3 78 0;
#X connect 94 3 73 0;
#X connect 94 3 85 0;
#X connect 94 3 86 0;
#X connect 94 3 88 0;
#X connect 94 3 89 0;
#X connect 94 3 90 0;
#X connect 94 3 91 0;
#X connect 94 4 79 0;
#X connect 94 4 73 0;
#X connect 94 4 85 0;
#X connect 94 4 86 0;
#X connect 94 4 87 0;
#X connect 94 4 89 0;
#X connect 94 4 90 0;
#X connect 94 4 91 0;
#X connect 94 5 80 0;
#X connect 94 5 73 0;
#X connect 94 5 85 0;
#X connect 94 5 86 0;
#X connect 94 5 87 0;
#X connect 94 5 88 0;
#X connect 94 5 90 0;
#X connect 94 5 91 0;
#X connect 94 6 83 0;
#X connect 94 6 73 0;
#X connect 94 6 85 0;
#X connect 94 6 86 0;
#X connect 94 6 87 0;
#X connect 94 6 88 0;
#X connect 94 6 89 0;
#X connect 94 6 91 0;
#X connect 94 7 84 0;
#X connect 94 7 73 0;
#X connect 94 7 85 0;
#X connect 94 7 86 0;
#X connect 94 7 87 0;
#X connect 94 7 88 0;
#X connect 94 7 89 0;
#X connect 94 7 90 0;
#X connect 94 8 73 0;
#X connect 94 8 85 0;
#X connect 94 8 86 0;
#X connect 94 8 87 0;
#X connect 94 8 88 0;
#X connect 94 8 89 0;
#X connect 94 8 90 0;
#X connect 94 8 91 0;
#X connect 103 0 67 1;
#X connect 103 0 71 1;
#X connect 103 0 70 1;
#X connect 103 0 69 1;
#X connect 103 0 68 1;
#X connect 103 0 66 1;
#X connect 103 0 65 1;
#X connect 103 0 64 1;
#X connect 104 0 103 0;
#X connect 105 0 103 1;
#X connect 106 0 118 1;
#X connect 106 0 144 1;
#X connect 106 0 143 1;
#X connect 106 0 124 1;
#X connect 106 0 123 1;
#X connect 106 0 122 1;
#X connect 106 0 121 1;
#X connect 106 0 120 1;
#X connect 106 0 119 1;
#X connect 107 0 106 0;
#X connect 108 0 11 0;
#X connect 108 0 26 0;
#X connect 108 0 27 0;
#X connect 108 0 28 0;
#X connect 108 0 29 0;
#X connect 108 0 30 0;
#X connect 108 0 31 0;
#X connect 108 0 32 0;
#X connect 108 0 33 0;
#X connect 108 1 13 0;
#X connect 108 1 12 0;
#X connect 108 1 27 0;
#X connect 108 1 28 0;
#X connect 108 1 29 0;
#X connect 108 1 30 0;
#X connect 108 1 31 0;
#X connect 108 1 32 0;
#X connect 108 1 33 0;
#X connect 108 2 16 0;
#X connect 108 2 12 0;
#X connect 108 2 26 0;
#X connect 108 2 28 0;
#X connect 108 2 29 0;
#X connect 108 2 30 0;
#X connect 108 2 31 0;
#X connect 108 2 32 0;
#X connect 108 2 33 0;
#X connect 108 3 17 0;
#X connect 108 3 12 0;
#X connect 108 3 26 0;
#X connect 108 3 27 0;
#X connect 108 3 29 0;
#X connect 108 3 30 0;
#X connect 108 3 31 0;
#X connect 108 3 32 0;
#X connect 108 3 33 0;
#X connect 108 4 18 0;
#X connect 108 4 12 0;
#X connect 108 4 26 0;
#X connect 108 4 27 0;
#X connect 108 4 28 0;
#X connect 108 4 30 0;
#X connect 108 4 31 0;
#X connect 108 4 32 0;
#X connect 108 4 33 0;
#X connect 108 5 19 0;
#X connect 108 5 12 0;
#X connect 108 5 26 0;
#X connect 108 5 27 0;
#X connect 108 5 28 0;
#X connect 108 5 29 0;
#X connect 108 5 31 0;
#X connect 108 5 32 0;
#X connect 108 5 33 0;
#X connect 108 6 22 0;
#X connect 108 6 12 0;
#X connect 108 6 26 0;
#X connect 108 6 27 0;
#X connect 108 6 28 0;
#X connect 108 6 29 0;
#X connect 108 6 30 0;
#X connect 108 6 32 0;
#X connect 108 6 33 0;
#X connect 108 7 23 0;
#X connect 108 7 12 0;
#X connect 108 7 26 0;
#X connect 108 7 27 0;
#X connect 108 7 28 0;
#X connect 108 7 29 0;
#X connect 108 7 30 0;
#X connect 108 7 31 0;
#X connect 108 7 33 0;
#X connect 108 8 25 0;
#X connect 108 8 12 0;
#X connect 108 8 26 0;
#X connect 108 8 27 0;
#X connect 108 8 28 0;
#X connect 108 8 29 0;
#X connect 108 8 30 0;
#X connect 108 8 31 0;
#X connect 108 8 32 0;
#X connect 108 9 33 0;
#X connect 108 9 32 0;
#X connect 108 9 31 0;
#X connect 108 9 30 0;
#X connect 108 9 29 0;
#X connect 108 9 28 0;
#X connect 108 9 27 0;
#X connect 108 9 26 0;
#X connect 108 9 12 0;
#X connect 109 0 43 0;
#X connect 109 0 56 0;
#X connect 109 0 57 0;
#X connect 109 0 58 0;
#X connect 109 0 59 0;
#X connect 109 0 60 0;
#X connect 109 0 61 0;
#X connect 109 0 62 0;
#X connect 109 1 45 0;
#X connect 109 1 44 0;
#X connect 109 1 57 0;
#X connect 109 1 58 0;
#X connect 109 1 59 0;
#X connect 109 1 60 0;
#X connect 109 1 61 0;
#X connect 109 1 62 0;
#X connect 109 2 48 0;
#X connect 109 2 44 0;
#X connect 109 2 56 0;
#X connect 109 2 58 0;
#X connect 109 2 59 0;
#X connect 109 2 60 0;
#X connect 109 2 61 0;
#X connect 109 2 62 0;
#X connect 109 3 49 0;
#X connect 109 3 44 0;
#X connect 109 3 56 0;
#X connect 109 3 57 0;
#X connect 109 3 59 0;
#X connect 109 3 60 0;
#X connect 109 3 61 0;
#X connect 109 3 62 0;
#X connect 109 4 50 0;
#X connect 109 4 44 0;
#X connect 109 4 56 0;
#X connect 109 4 57 0;
#X connect 109 4 58 0;
#X connect 109 4 60 0;
#X connect 109 4 61 0;
#X connect 109 4 62 0;
#X connect 109 5 51 0;
#X connect 109 5 44 0;
#X connect 109 5 56 0;
#X connect 109 5 57 0;
#X connect 109 5 58 0;
#X connect 109 5 59 0;
#X connect 109 5 61 0;
#X connect 109 5 62 0;
#X connect 109 6 54 0;
#X connect 109 6 44 0;
#X connect 109 6 56 0;
#X connect 109 6 57 0;
#X connect 109 6 58 0;
#X connect 109 6 59 0;
#X connect 109 6 60 0;
#X connect 109 6 62 0;
#X connect 109 7 55 0;
#X connect 109 7 44 0;
#X connect 109 7 56 0;
#X connect 109 7 57 0;
#X connect 109 7 58 0;
#X connect 109 7 59 0;
#X connect 109 7 60 0;
#X connect 109 7 61 0;
#X connect 109 8 44 0;
#X connect 109 8 56 0;
#X connect 109 8 57 0;
#X connect 109 8 58 0;
#X connect 109 8 59 0;
#X connect 109 8 60 0;
#X connect 109 8 61 0;
#X connect 109 8 62 0;
#X connect 110 0 112 1;
#X connect 110 0 115 1;
#X connect 110 1 111 0;
#X connect 111 0 113 0;
#X connect 111 0 117 0;
#X connect 111 1 114 0;
#X connect 111 1 116 0;
#X connect 111 2 114 0;
#X connect 111 2 117 0;
#X connect 112 0 142 0;
#X connect 113 0 112 0;
#X connect 114 0 112 0;
#X connect 115 0 149 0;
#X connect 116 0 115 0;
#X connect 117 0 115 0;
#X connect 118 0 150 0;
#X connect 119 0 151 0;
#X connect 120 0 152 0;
#X connect 121 0 153 0;
#X connect 122 0 154 0;
#X connect 123 0 155 0;
#X connect 124 0 156 0;
#X connect 125 0 118 0;
#X connect 126 0 118 0;
#X connect 127 0 119 0;
#X connect 130 0 120 0;
#X connect 131 0 121 0;
#X connect 132 0 122 0;
#X connect 133 0 123 0;
#X connect 135 0 124 0;
#X connect 136 0 119 0;
#X connect 137 0 120 0;
#X connect 138 0 121 0;
#X connect 139 0 122 0;
#X connect 140 0 123 0;
#X connect 141 0 124 0;
#X connect 142 0 125 0;
#X connect 142 0 136 0;
#X connect 142 0 137 0;
#X connect 142 0 138 0;
#X connect 142 0 139 0;
#X connect 142 0 140 0;
#X connect 142 0 141 0;
#X connect 142 1 127 0;
#X connect 142 1 126 0;
#X connect 142 1 137 0;
#X connect 142 1 138 0;
#X connect 142 1 139 0;
#X connect 142 1 140 0;
#X connect 142 1 141 0;
#X connect 142 2 130 0;
#X connect 142 2 126 0;
#X connect 142 2 136 0;
#X connect 142 2 138 0;
#X connect 142 2 139 0;
#X connect 142 2 140 0;
#X connect 142 2 141 0;
#X connect 142 3 131 0;
#X connect 142 3 126 0;
#X connect 142 3 136 0;
#X connect 142 3 137 0;
#X connect 142 3 139 0;
#X connect 142 3 140 0;
#X connect 142 3 141 0;
#X connect 142 4 132 0;
#X connect 142 4 126 0;
#X connect 142 4 136 0;
#X connect 142 4 137 0;
#X connect 142 4 138 0;
#X connect 142 4 140 0;
#X connect 142 4 141 0;
#X connect 142 5 133 0;
#X connect 142 5 126 0;
#X connect 142 5 136 0;
#X connect 142 5 137 0;
#X connect 142 5 138 0;
#X connect 142 5 139 0;
#X connect 142 5 141 0;
#X connect 142 6 135 0;
#X connect 142 6 126 0;
#X connect 142 6 136 0;
#X connect 142 6 137 0;
#X connect 142 6 138 0;
#X connect 142 6 139 0;
#X connect 142 6 140 0;
#X connect 142 7 126 0;
#X connect 142 7 136 0;
#X connect 142 7 137 0;
#X connect 142 7 138 0;
#X connect 142 7 139 0;
#X connect 142 7 140 0;
#X connect 142 7 141 0;
#X connect 143 0 157 0;
#X connect 144 0 158 0;
#X connect 145 0 143 0;
#X connect 146 0 143 0;
#X connect 147 0 144 0;
#X connect 148 0 144 0;
#X connect 149 0 145 0;
#X connect 149 0 148 0;
#X connect 149 1 147 0;
#X connect 149 1 146 0;
#X connect 149 2 146 0;
#X connect 149 2 148 0;
