#N canvas 411 88 684 499 12;
#X obj 37 42 inlet~;
#X obj 63 255 outlet~;
#X text 90 22 Right;
#X floatatom 141 104 0 0 120 0 - - -;
#X text 182 104 level \, dB;
#X floatatom 185 128 0 0 100 0 - - -;
#X text 226 128 liveness \, 0-100;
#X floatatom 229 154 0 0 120 0 - - -;
#X floatatom 273 178 0 0 120 0 - - -;
#X text 260 154 crossover frequency \, Hz.;
#X text 306 179 HF damping \, percent;
#X obj 139 75 inlet;
#X obj 187 74 inlet;
#X obj 230 75 inlet;
#X obj 273 74 inlet;
#X obj 124 256 outlet~;
#X obj 89 42 inlet~;
#X text 38 20 left;
#X obj 78 221 rev3~, f 21;
#X connect 0 0 18 0;
#X connect 3 0 18 2;
#X connect 5 0 18 3;
#X connect 7 0 18 4;
#X connect 8 0 18 5;
#X connect 11 0 3 0;
#X connect 12 0 5 0;
#X connect 13 0 7 0;
#X connect 14 0 8 0;
#X connect 16 0 18 1;
#X connect 18 0 1 0;
#X connect 18 1 15 0;
