#N canvas 146 65 1629 1024 12;
#X obj 837 -749 cnv 15 294 368 empty empty empty 20 12 0 14 #e0e0e0
#404040 0;
#X obj 238 -1341 cnv 15 667 519 empty empty empty 20 12 0 14 #e0e0e0
#404040 0;
#X obj 760 -1419 bng 63 250 50 0 empty empty empty 17 7 0 10 #fcfcfc
#000000 #000000;
#X obj 907 -445 *~;
#X text 1074 -1169 VOLUME;
#X text 1173 -1170 RELEASE;
#X obj 907 -504 lop~;
#X obj 557 -1014 osc~ 330;
#X obj 432 -1115 vline~;
#X obj 560 -1115 vline~;
#X obj 557 -985 *~;
#X obj 432 -984 *~;
#X obj 563 -1071 *~;
#X obj 432 -1074 *~;
#X obj 713 -1045 noise~;
#X obj 670 -1117 vline~;
#X obj 669 -1072 *~;
#X obj 786 -1117 vline~;
#X obj 786 -1076 *~;
#X obj 671 -985 *~;
#X obj 762 -946 *~;
#X msg 594 -1327 bang;
#X obj 634 -1198 + \$2;
#X msg 634 -1221 40;
#X obj 743 -1198 + \$2;
#X msg 743 -1221 50;
#X obj 860 -1199 + \$2;
#X msg 860 -1222 35;
#X obj 505 -1198 + \$2;
#X msg 505 -1221 70;
#X obj 401 -1053 +;
#X msg 519 -1087 330;
#X obj 519 -1065 +;
#X obj 432 -1013 osc~ 180;
#X msg 401 -1075 180;
#X obj 762 -980 hip~ 950;
#X obj 713 -1019 lop~ 2800;
#X obj 312 -1114 vline~;
#X obj 312 -983 *~;
#X obj 312 -1073 *~;
#X obj 385 -1197 + \$2;
#X obj 281 -1052 +;
#X obj 313 -955 *~ 1;
#X obj 312 -1011 osc~ 180;
#X msg 385 -1220 90;
#X msg 281 -1074 90;
#X obj 672 -946 *~ 1;
#X obj 433 -956 *~ 1;
#X obj 557 -953 *~ 1;
#X floatatom 1076 -1121 5 0 1 0 - - -, f 5;
#X floatatom 1129 -1117 5 0 0 0 - - -, f 5;
#X floatatom 1178 -1118 5 0 0 0 - - -, f 5;
#X msg 560 -1149 1 0 0 \, 0 \$1 0;
#X msg 669 -1151 1 0 0 \, 0 \$1 0;
#X msg 786 -1151 1 0 0 \, 0 \$1 0;
#X msg 431 -1149 1 0 0 \, 0 \$1 0;
#X msg 311 -1148 1 0 0 \, 0 \$1 0;
#X obj 350 -1173 f;
#X obj 475 -1174 f;
#X obj 603 -1174 f;
#X obj 702 -1176 f;
#X obj 825 -1176 f;
#X text 1127 -1170 PITCH;
#X obj 761 -1440 inlet;
#X text 756 -1463 Trigger;
#X obj 907 -418 outlet~;
#X obj 654 -870 *~ 1;
#X obj 1076 -1145 inlet;
#X obj 1128 -1145 inlet;
#X obj 1178 -1145 inlet;
#X text 1280 -1171 LP Filter;
#X obj 1280 -1148 inlet;
#X floatatom 1288 -1078 5 0 0 0 - - -, f 5;
#X obj 1288 -1099 - 220;
#X obj 1234 -1120 hsl 128 15 220 22000 1 0 empty empty empty -2 -8
0 10 #fcfcfc #000000 #000000 8082 1;
#X obj 1433 -1148 inlet;
#X floatatom 1441 -1078 5 0 0 0 - - -, f 5;
#X obj 1441 -1099 - 220;
#X obj 1387 -1120 hsl 128 15 220 22000 1 0 empty empty empty -2 -8
0 10 #fcfcfc #000000 #000000 2020 1;
#X text 1416 -1171 HP Filter;
#X obj 907 -476 hip~;
#X msg 1191 -1230 22000;
#X obj 1177 -1256 loadbang;
#X obj 915 -603 wrap~;
#X obj 1054 -641 tgl 15 0 empty empty empty 17 7 0 10 #fcfcfc #000000
#000000 0 1;
#X obj 1066 -614 sel 0;
#X obj 859 -549 spigot~;
#X obj 915 -549 spigot~;
#X msg 1059 -590 1;
#X msg 1088 -589 0;
#X msg 997 -589 0;
#X msg 1026 -590 1;
#X obj 997 -611 loadbang;
#X obj 915 -578 *~ 0.25;
#X obj 1049 -704 gate 2;
#X msg 1072 -675 1;
#X msg 1043 -675 0;
#X obj 971 -1123 tgl 29 0 empty empty empty 17 7 0 10 #fcfcfc #000000
#000000 0 1;
#X obj 1052 -726 + 1, f 4;
#X obj 971 -1144 inlet;
#X text 965 -1166 Distortion;
#X msg 1158 -1229 0;
#X text 258 -1334 noise gen;
#X text 852 -735 Destorion gate/out;
#X connect 2 0 21 0;
#X connect 2 0 94 1;
#X connect 3 0 65 0;
#X connect 6 0 80 0;
#X connect 7 0 10 0;
#X connect 8 0 13 0;
#X connect 8 0 13 1;
#X connect 9 0 12 0;
#X connect 9 0 12 1;
#X connect 10 0 48 0;
#X connect 11 0 47 0;
#X connect 12 0 10 1;
#X connect 13 0 11 1;
#X connect 14 0 36 0;
#X connect 15 0 16 0;
#X connect 15 0 16 1;
#X connect 16 0 19 1;
#X connect 17 0 18 0;
#X connect 17 0 18 1;
#X connect 18 0 20 1;
#X connect 19 0 46 0;
#X connect 20 0 66 0;
#X connect 21 0 23 0;
#X connect 21 0 25 0;
#X connect 21 0 29 0;
#X connect 21 0 27 0;
#X connect 21 0 34 0;
#X connect 21 0 31 0;
#X connect 21 0 45 0;
#X connect 21 0 44 0;
#X connect 21 0 61 0;
#X connect 21 0 60 0;
#X connect 21 0 59 0;
#X connect 21 0 58 0;
#X connect 21 0 57 0;
#X connect 22 0 59 1;
#X connect 23 0 22 0;
#X connect 24 0 60 1;
#X connect 25 0 24 0;
#X connect 26 0 61 1;
#X connect 27 0 26 0;
#X connect 28 0 58 1;
#X connect 29 0 28 0;
#X connect 30 0 33 0;
#X connect 31 0 32 0;
#X connect 32 0 7 0;
#X connect 33 0 11 0;
#X connect 34 0 30 0;
#X connect 35 0 20 0;
#X connect 36 0 19 0;
#X connect 36 0 35 0;
#X connect 37 0 39 0;
#X connect 37 0 39 1;
#X connect 38 0 42 0;
#X connect 39 0 38 1;
#X connect 40 0 57 1;
#X connect 41 0 43 0;
#X connect 42 0 66 0;
#X connect 43 0 38 0;
#X connect 44 0 40 0;
#X connect 45 0 41 0;
#X connect 46 0 66 0;
#X connect 47 0 66 0;
#X connect 48 0 66 0;
#X connect 49 0 3 1;
#X connect 50 0 41 1;
#X connect 50 0 30 1;
#X connect 50 0 32 1;
#X connect 51 0 26 1;
#X connect 51 0 24 1;
#X connect 51 0 22 1;
#X connect 51 0 28 1;
#X connect 51 0 40 1;
#X connect 52 0 9 0;
#X connect 53 0 15 0;
#X connect 54 0 17 0;
#X connect 55 0 8 0;
#X connect 56 0 37 0;
#X connect 57 0 56 0;
#X connect 58 0 55 0;
#X connect 59 0 52 0;
#X connect 60 0 53 0;
#X connect 61 0 54 0;
#X connect 63 0 2 0;
#X connect 66 0 86 0;
#X connect 66 0 83 0;
#X connect 67 0 49 0;
#X connect 68 0 50 0;
#X connect 69 0 51 0;
#X connect 71 0 74 0;
#X connect 72 0 6 1;
#X connect 73 0 72 0;
#X connect 74 0 73 0;
#X connect 75 0 78 0;
#X connect 76 0 80 1;
#X connect 77 0 76 0;
#X connect 78 0 77 0;
#X connect 80 0 3 0;
#X connect 81 0 74 0;
#X connect 82 0 81 0;
#X connect 82 0 101 0;
#X connect 83 0 93 0;
#X connect 84 0 85 0;
#X connect 84 0 86 1;
#X connect 85 0 88 0;
#X connect 85 1 89 0;
#X connect 86 0 6 0;
#X connect 87 0 6 0;
#X connect 88 0 87 1;
#X connect 89 0 87 1;
#X connect 90 0 86 1;
#X connect 91 0 87 1;
#X connect 92 0 90 0;
#X connect 92 0 91 0;
#X connect 93 0 87 0;
#X connect 94 0 96 0;
#X connect 94 1 95 0;
#X connect 95 0 84 0;
#X connect 96 0 84 0;
#X connect 97 0 98 0;
#X connect 98 0 94 0;
#X connect 99 0 97 0;
#X connect 101 0 49 0;
