#N canvas 44 29 1153 708 12;
#X obj 14 -874 cnv 15 235 520 empty empty empty 20 12 0 14 #e0e0e0
#404040 0;
#X obj 584 -888 cnv 15 415 277 empty empty empty 20 12 0 14 #e0e0e0
#404040 0;
#X obj 1022 -1001 cnv 15 441 482 empty empty empty 20 12 0 14 #e0e0e0
#404040 0;
#X obj 25 -564 *~;
#X obj 24 -760 mtof;
#X floatatom 24 -711 5 0 0 0 - - -, f 5;
#X obj 24 -622 osc~;
#X obj 79 -1014 inlet;
#X obj 24 -783 unpack f f;
#X text 21 -735 Carrier;
#X obj 24 -663 +~;
#X floatatom 630 -751 5 0 0 0 - - -, f 5;
#X text 618 -775 Mod FreQ;
#X obj 630 -669 *~;
#X floatatom 788 -748 5 0 0 0 - - -, f 5;
#X text 780 -772 Mod Index;
#X obj 630 -694 osc~;
#X obj 1104 -582 line~;
#X obj 1100 -804 bng 15 250 50 0 empty empty empty 17 7 0 10 #fcfcfc
#000000 #000000;
#X obj 1048 -852 sel 1;
#X obj 1250 -681 bng 15 250 50 0 empty empty empty 17 7 0 10 #fcfcfc
#000000 #000000;
#X text 1132 -784 ATTACK;
#X text 1281 -662 DECAY;
#X obj 1167 -660 f;
#X obj 1101 -785 f;
#X obj 1250 -662 f;
#X obj 1178 -893 unpack f f f f;
#X obj 1374 -661 f;
#X obj 1374 -681 bng 15 250 50 0 empty empty empty 17 7 0 10 #fcfcfc
#000000 #000000;
#X text 1108 -660 Sustain;
#X text 1407 -661 Release;
#X msg 1042 -700 1;
#X obj 1167 -683 delay 5;
#X obj 1182 -745 delay;
#X obj 1214 -770 + 5;
#X floatatom 1119 -757 5 0 0 0 - - -, f 5;
#X floatatom 1116 -635 5 0 0 0 - - -, f 5;
#X floatatom 1283 -637 5 0 0 0 - - -, f 5;
#X floatatom 1385 -629 5 0 0 0 - - -, f 5;
#X floatatom 1232 -741 5 0 0 0 - - -, f 5;
#X msg 1092 -687 0;
#X obj 1042 -723 delay 5;
#X obj 1043 -744 bng 15 250 50 0 empty empty empty 17 7 0 10 #fcfcfc
#000000 #000000;
#X obj 1182 -764 bng 15 250 50 0 empty empty empty 17 7 0 10 #fcfcfc
#000000 #000000;
#X msg 1182 -821 stop;
#X floatatom 926 -762 5 0 0 0 - - -, f 5;
#N canvas 622 386 450 300 rmp 0;
#X obj 50 20 inlet;
#X obj 50 49 bng 15 250 50 0 empty empty empty 17 7 0 10 #fcfcfc #000000
#000000;
#X obj 257 67 inlet;
#X obj 47 279 outlet~;
#X obj 239 128 f;
#X obj 47 128 f;
#X obj 111 39 inlet;
#X text 113 17 Peak;
#X text 241 42 Ramp time;
#X obj 19 86 delay 5;
#X floatatom 126 67 5 0 0 0 - - -, f 5;
#X floatatom 279 102 5 0 0 0 - - -, f 5;
#X msg 80 163 0;
#X obj 133 112 delay;
#X obj 133 94 bng 15 250 50 0 empty empty empty 17 7 0 10 #fcfcfc #000000
#000000;
#X obj 48 197 line~;
#X obj 81 140 delay 5;
#X msg 173 217 0;
#X obj 173 189 gate;
#X obj 364 137 inlet;
#X text 366 113 Shape;
#X obj 274 171 sel 0;
#X msg 265 198 1;
#X msg 301 197 0;
#X obj 276 232 gate;
#X connect 0 0 1 0;
#X connect 1 0 9 0;
#X connect 1 0 18 1;
#X connect 1 0 24 1;
#X connect 2 0 4 1;
#X connect 2 0 11 0;
#X connect 4 0 15 1;
#X connect 4 0 13 1;
#X connect 5 0 15 0;
#X connect 6 0 5 1;
#X connect 6 0 10 0;
#X connect 9 0 5 0;
#X connect 9 0 14 0;
#X connect 12 0 15 0;
#X connect 13 0 16 0;
#X connect 13 0 4 0;
#X connect 14 0 13 0;
#X connect 15 0 3 0;
#X connect 16 0 12 0;
#X connect 17 0 15 1;
#X connect 18 0 17 0;
#X connect 19 0 18 0;
#X connect 19 0 21 0;
#X connect 21 0 22 0;
#X connect 21 1 23 0;
#X connect 22 0 24 0;
#X connect 23 0 24 0;
#X connect 24 0 4 0;
#X restore 848 -733 pd rmp;
#X floatatom 875 -763 5 0 0 0 - - -, f 5;
#X obj 689 -706 *~;
#X floatatom 707 -760 5 0 0 0 - - -, f 5;
#X obj 689 -734 *~;
#X text 694 -788 harmonics;
#X obj 632 -828 unpack f f f f f f;
#X obj 630 -724 +~;
#X obj 742 -702 +~;
#X floatatom 539 -980 5 0 0 0 - - -, f 5;
#X floatatom 735 -982 5 0 0 0 - - -, f 5;
#X text 529 -1006 Mod FreQ;
#X text 722 -1008 Mod Index;
#X obj 644 -884 bng 10 250 50 0 empty empty empty 17 7 0 10 #fcfcfc
#000000 #000000;
#X floatatom 888 -980 5 0 0 0 - - -, f 5;
#X floatatom 808 -981 5 0 0 0 - - -, f 5;
#X text 874 -1006 Ramp Time;
#X text 799 -1007 Ramp Peak;
#X obj 960 -982 tgl 29 0 empty empty empty 17 7 0 10 #fcfcfc #000000
#000000 1 1;
#X text 944 -1008 Ramp Type;
#X text 955 -946 0 = ↗↘;
#X text 955 -925 X = ↘;
#X obj 631 -869 pack f f f f f f;
#X floatatom 622 -979 5 0 0 0 - - -, f 5;
#X text 610 -1006 Harmonics;
#X obj 539 -1030 r symf;
#X obj 622 -1032 r syh;
#X obj 736 -1033 r symi;
#X obj 810 -1033 r syrp;
#X obj 888 -1033 r syrt;
#X obj 961 -1034 r syrty;
#X text 14 -1040 note in;
#X obj 23 -1016 inlet;
#X obj 24 -809 pack f f;
#X floatatom 265 -983 5 0 0 0 - - -, f 5;
#X text 256 -1005 Transpose;
#N canvas 577 60 1082 397 sltomidi 0;
#X obj 682 305 inlet;
#X obj 746 305 inlet;
#X text 686 282 step;
#X text 751 283 OCT;
#X obj 36 40 inlet;
#X text 34 19 SL Val;
#X obj 90 40 inlet;
#X text 90 18 Maj/Min;
#X obj 40 89 gate 2;
#X msg 32 175 60;
#X msg 68 175 62;
#X msg 104 175 64;
#X msg 139 175 65;
#X msg 172 175 67;
#X msg 205 175 69;
#X msg 240 175 71;
#X msg 275 175 72;
#X text 279 198 c5;
#X text 38 199 c4;
#X msg 312 175 74;
#X msg 348 175 76;
#X msg 383 175 77;
#X msg 416 175 79;
#X msg 449 175 81;
#X msg 484 175 83;
#X msg 517 175 84;
#X text 519 198 c6;
#X text 69 200 d;
#X text 144 201 f;
#X text 178 202 g;
#X text 212 201 a;
#X text 249 201 b;
#X text 109 201 e;
#X text 318 201 d;
#X text 390 200 f;
#X text 424 200 g;
#X text 457 200 a;
#X text 493 200 b;
#X text 355 201 e;
#X obj 36 131 sel 1 2 3 4 5 6 7 8 9 10 11 12 13 14 15;
#X msg 588 172 60;
#X msg 624 172 62;
#X msg 695 172 65;
#X msg 728 172 67;
#X msg 831 172 72;
#X text 835 195 c5;
#X text 594 196 c4;
#X msg 868 172 74;
#X msg 939 172 77;
#X msg 972 172 79;
#X msg 1073 172 84;
#X text 1075 195 c6;
#X text 625 197 d;
#X text 700 198 f;
#X text 734 199 g;
#X text 874 198 d;
#X text 946 197 f;
#X text 980 197 g;
#X obj 592 128 sel 1 2 3 4 5 6 7 8 9 10 11 12 13 14 15;
#X text 665 198 eb;
#X text 768 198 ab;
#X text 805 198 bb;
#X text 911 198 eb;
#X text 1013 197 ab;
#X text 1049 197 bb;
#X msg 660 172 63;
#X msg 761 172 68;
#X msg 796 172 70;
#X msg 904 172 75;
#X msg 1005 172 80;
#X msg 1040 172 82;
#X obj 376 316 +;
#X obj 746 332 * 12;
#X obj 376 347 +;
#X obj 376 394 outlet;
#X text 132 102 Maj;
#X text 697 104 Min;
#X floatatom 376 372 5 0 0 0 - - -, f 5;
#X obj 90 64 + 1;
#X obj 58 114 bng 15 250 50 0 empty empty empty 17 7 0 10 #fcfcfc #000000
#000000;
#X obj 598 107 bng 15 250 50 0 empty empty empty 17 7 0 10 #fcfcfc
#000000 #000000;
#X connect 0 0 71 1;
#X connect 1 0 72 0;
#X connect 4 0 8 1;
#X connect 6 0 78 0;
#X connect 8 0 39 0;
#X connect 8 0 79 0;
#X connect 8 1 58 0;
#X connect 8 1 80 0;
#X connect 9 0 71 0;
#X connect 10 0 71 0;
#X connect 11 0 71 0;
#X connect 12 0 71 0;
#X connect 13 0 71 0;
#X connect 14 0 71 0;
#X connect 15 0 71 0;
#X connect 16 0 71 0;
#X connect 19 0 71 0;
#X connect 20 0 71 0;
#X connect 21 0 71 0;
#X connect 22 0 71 0;
#X connect 23 0 71 0;
#X connect 24 0 71 0;
#X connect 25 0 71 0;
#X connect 39 0 9 0;
#X connect 39 1 10 0;
#X connect 39 2 11 0;
#X connect 39 3 12 0;
#X connect 39 4 13 0;
#X connect 39 5 14 0;
#X connect 39 6 15 0;
#X connect 39 7 16 0;
#X connect 39 8 19 0;
#X connect 39 9 20 0;
#X connect 39 10 21 0;
#X connect 39 11 22 0;
#X connect 39 12 23 0;
#X connect 39 13 24 0;
#X connect 39 14 25 0;
#X connect 40 0 71 0;
#X connect 41 0 71 0;
#X connect 42 0 71 0;
#X connect 43 0 71 0;
#X connect 44 0 71 0;
#X connect 47 0 71 0;
#X connect 48 0 71 0;
#X connect 49 0 71 0;
#X connect 50 0 71 0;
#X connect 58 0 40 0;
#X connect 58 1 41 0;
#X connect 58 2 65 0;
#X connect 58 3 42 0;
#X connect 58 4 43 0;
#X connect 58 5 66 0;
#X connect 58 6 67 0;
#X connect 58 7 44 0;
#X connect 58 8 47 0;
#X connect 58 9 68 0;
#X connect 58 10 48 0;
#X connect 58 11 49 0;
#X connect 58 12 69 0;
#X connect 58 13 70 0;
#X connect 58 14 50 0;
#X connect 65 0 71 0;
#X connect 66 0 71 0;
#X connect 67 0 71 0;
#X connect 68 0 71 0;
#X connect 69 0 71 0;
#X connect 70 0 71 0;
#X connect 71 0 73 0;
#X connect 72 0 73 1;
#X connect 73 0 77 0;
#X connect 77 0 74 0;
#X connect 78 0 8 0;
#X restore 24 -834 pd sltomidi;
#X obj 266 -1027 r sytrs;
#X floatatom 340 -982 5 0 0 0 - - -, f 5;
#X obj 341 -1026 r sytro;
#X text 343 -1004 OCT;
#X obj 180 -981 tgl 27 0 empty empty empty 17 7 0 10 #fcfcfc #000000
#000000 0 1;
#X text 163 -1005 Maj/Min;
#X obj 175 -1029 r symami;
#X obj 22 -525 lop~;
#X obj 23 -493 hip~;
#X obj 331 -485 r sylp;
#X obj 483 -483 r syhp;
#X msg 419 -545 22000;
#X obj 419 -574 loadbang;
#X text 378 -508 LP Filter;
#X floatatom 386 -415 5 0 0 0 - - -, f 5;
#X obj 386 -436 - 220;
#X obj 332 -457 hsl 128 15 220 22000 1 0 empty empty empty -2 -8 0
10 #fcfcfc #000000 #000000 12700 1;
#X floatatom 539 -415 5 0 0 0 - - -, f 5;
#X obj 539 -436 - 220;
#X obj 485 -457 hsl 128 15 220 22000 1 0 empty empty empty -2 -8 0
10 #fcfcfc #000000 #000000 0 1;
#X text 514 -508 HP Filter;
#X obj 24 -462 *~;
#X floatatom 179 -543 5 0 1 0 - - -, f 5;
#X obj 196 -596 r syv;
#X obj 1178 -917 pack f f f f;
#X obj 1178 -939 r syadsrA;
#X obj 1205 -961 r syadsrD;
#X obj 1234 -982 r syadsrS;
#X obj 1259 -940 r syadsrR;
#X obj 24 -951 int;
#X floatatom 36 -914 5 0 0 0 - - -, f 5;
#X obj 23 -404 outlet~;
#X text 77 -1038 note on;
#N canvas 531 148 726 416 noteoff 0;
#X msg 17 241 0;
#X obj 17 213 sel 0;
#X obj 17 266 outlet;
#X obj 23 63 sel 0 1 2 3 4 5 6 7 8 9 10 11 12 13 14 15;
#X floatatom 23 41 5 0 0 0 - - -, f 5;
#X obj 23 18 r synthcount;
#X obj 339 133 r c91;
#X obj 425 133 r c93;
#X obj 383 133 r c92;
#X obj 511 134 r c95;
#X obj 552 135 r c96;
#X obj 594 134 r c97;
#X obj 339 157 r c99;
#X obj 636 133 r c98;
#X obj 381 157 r c910;
#X obj 431 157 r c911;
#X obj 481 156 r c912;
#X obj 529 155 r c913;
#X obj 580 158 r c914;
#X obj 683 158 r c916;
#X obj 631 159 r c915;
#X obj 468 133 r c94;
#X obj 128 220 f;
#X obj 157 221 f;
#X obj 188 222 f;
#X obj 217 223 f;
#X obj 188 222 f;
#X obj 217 223 f;
#X obj 245 217 f;
#X obj 274 218 f;
#X obj 305 219 f;
#X obj 334 220 f;
#X obj 305 219 f;
#X obj 334 220 f;
#X obj 130 252 f;
#X obj 159 253 f;
#X obj 190 254 f;
#X obj 219 255 f;
#X obj 190 254 f;
#X obj 219 255 f;
#X obj 247 249 f;
#X obj 276 250 f;
#X obj 307 251 f;
#X obj 336 252 f;
#X obj 307 251 f;
#X obj 336 252 f;
#X connect 0 0 2 0;
#X connect 1 0 0 0;
#X connect 3 0 22 0;
#X connect 3 1 23 0;
#X connect 3 2 26 0;
#X connect 3 3 27 0;
#X connect 3 4 28 0;
#X connect 3 5 29 0;
#X connect 3 6 32 0;
#X connect 3 7 33 0;
#X connect 3 8 34 0;
#X connect 3 9 35 0;
#X connect 3 10 38 0;
#X connect 3 11 39 0;
#X connect 3 12 40 0;
#X connect 3 13 41 0;
#X connect 3 14 44 0;
#X connect 3 15 45 0;
#X connect 4 0 3 0;
#X connect 5 0 4 0;
#X connect 6 0 22 1;
#X connect 7 0 26 1;
#X connect 8 0 23 1;
#X connect 9 0 28 1;
#X connect 10 0 29 1;
#X connect 11 0 32 1;
#X connect 12 0 34 1;
#X connect 13 0 33 1;
#X connect 14 0 35 1;
#X connect 15 0 38 1;
#X connect 16 0 39 1;
#X connect 17 0 40 1;
#X connect 18 0 41 1;
#X connect 19 0 45 1;
#X connect 20 0 44 1;
#X connect 21 0 27 1;
#X connect 22 0 1 0;
#X connect 23 0 1 0;
#X connect 24 0 1 0;
#X connect 25 0 1 0;
#X connect 26 0 1 0;
#X connect 27 0 1 0;
#X connect 28 0 1 0;
#X connect 29 0 1 0;
#X connect 30 0 1 0;
#X connect 31 0 1 0;
#X connect 32 0 1 0;
#X connect 33 0 1 0;
#X connect 34 0 1 0;
#X connect 35 0 1 0;
#X connect 36 0 1 0;
#X connect 37 0 1 0;
#X connect 38 0 1 0;
#X connect 39 0 1 0;
#X connect 40 0 1 0;
#X connect 41 0 1 0;
#X connect 42 0 1 0;
#X connect 43 0 1 0;
#X connect 44 0 1 0;
#X connect 45 0 1 0;
#X restore 1048 -885 pd noteoff;
#X obj 92 -977 loadbang;
#X msg 91 -954 1;
#X msg 124 -955 0;
#X obj 122 -631 sel 0;
#X obj 122 -677 r play;
#X obj 1181 -961 bng 15 250 50 0 empty empty empty 17 7 0 10 #fcfcfc
#000000 #000000;
#X msg 122 -602 0;
#X obj 178 -567 f;
#X obj 162 -593 bng 15 250 50 0 empty empty empty 17 7 0 10 #fcfcfc
#000000 #000000;
#X floatatom 122 -656 5 0 0 0 - - -, f 5;
#X obj 193 -634 gate;
#X text 1046 -977 ADSR;
#X text 820 -871 Noise MOD;
#X text 164 -856 Out;
#X text 165 -701 Stop;
#X connect 3 0 90 0;
#X connect 4 0 5 0;
#X connect 5 0 10 0;
#X connect 5 0 50 0;
#X connect 6 0 3 0;
#X connect 7 0 79 1;
#X connect 8 0 4 0;
#X connect 8 1 19 0;
#X connect 10 0 6 0;
#X connect 11 0 53 0;
#X connect 13 0 10 1;
#X connect 14 0 54 0;
#X connect 16 0 13 0;
#X connect 17 0 3 1;
#X connect 18 0 24 0;
#X connect 19 0 18 0;
#X connect 19 0 42 0;
#X connect 19 0 46 0;
#X connect 19 1 28 0;
#X connect 19 1 40 0;
#X connect 19 1 44 0;
#X connect 20 0 25 0;
#X connect 23 0 17 0;
#X connect 24 0 17 1;
#X connect 24 0 35 0;
#X connect 25 0 17 1;
#X connect 26 0 24 1;
#X connect 26 0 34 0;
#X connect 26 0 39 0;
#X connect 26 1 25 1;
#X connect 26 1 37 0;
#X connect 26 2 23 1;
#X connect 26 2 36 0;
#X connect 26 3 27 1;
#X connect 26 3 38 0;
#X connect 27 0 17 1;
#X connect 28 0 27 0;
#X connect 31 0 17 0;
#X connect 31 0 43 0;
#X connect 32 0 23 0;
#X connect 33 0 20 0;
#X connect 33 0 32 0;
#X connect 34 0 33 1;
#X connect 40 0 17 0;
#X connect 41 0 31 0;
#X connect 42 0 41 0;
#X connect 43 0 33 0;
#X connect 44 0 33 0;
#X connect 45 0 46 2;
#X connect 46 0 54 1;
#X connect 47 0 46 1;
#X connect 48 0 13 1;
#X connect 49 0 50 1;
#X connect 50 0 48 0;
#X connect 50 0 53 1;
#X connect 52 0 11 0;
#X connect 52 1 49 0;
#X connect 52 2 14 0;
#X connect 52 3 47 0;
#X connect 52 4 45 0;
#X connect 52 5 46 3;
#X connect 53 0 16 0;
#X connect 54 0 48 1;
#X connect 55 0 68 0;
#X connect 56 0 59 0;
#X connect 56 0 68 2;
#X connect 59 0 68 0;
#X connect 60 0 59 0;
#X connect 60 0 68 4;
#X connect 61 0 59 0;
#X connect 61 0 68 3;
#X connect 64 0 59 0;
#X connect 64 0 68 5;
#X connect 68 0 52 0;
#X connect 69 0 59 0;
#X connect 69 0 68 1;
#X connect 71 0 55 0;
#X connect 72 0 69 0;
#X connect 73 0 56 0;
#X connect 74 0 61 0;
#X connect 75 0 60 0;
#X connect 76 0 64 0;
#X connect 78 0 112 0;
#X connect 79 0 8 0;
#X connect 80 0 82 2;
#X connect 82 0 79 0;
#X connect 83 0 80 0;
#X connect 84 0 82 3;
#X connect 85 0 84 0;
#X connect 87 0 82 1;
#X connect 89 0 87 0;
#X connect 90 0 91 0;
#X connect 91 0 104 0;
#X connect 92 0 99 0;
#X connect 93 0 102 0;
#X connect 94 0 99 0;
#X connect 95 0 94 0;
#X connect 97 0 90 1;
#X connect 98 0 97 0;
#X connect 99 0 98 0;
#X connect 100 0 91 1;
#X connect 101 0 100 0;
#X connect 102 0 101 0;
#X connect 104 0 114 0;
#X connect 105 0 104 1;
#X connect 106 0 124 1;
#X connect 106 0 127 1;
#X connect 107 0 26 0;
#X connect 108 0 107 0;
#X connect 109 0 107 1;
#X connect 109 0 122 0;
#X connect 110 0 107 2;
#X connect 110 0 122 0;
#X connect 111 0 107 3;
#X connect 111 0 122 0;
#X connect 112 0 82 0;
#X connect 112 0 113 0;
#X connect 116 0 19 0;
#X connect 117 0 118 0;
#X connect 117 0 119 0;
#X connect 118 0 112 1;
#X connect 119 0 87 0;
#X connect 120 0 123 0;
#X connect 120 1 125 0;
#X connect 120 1 127 0;
#X connect 121 0 126 0;
#X connect 122 0 107 0;
#X connect 123 0 3 1;
#X connect 123 0 105 0;
#X connect 123 0 127 0;
#X connect 124 0 105 0;
#X connect 125 0 124 0;
#X connect 126 0 120 0;
#X connect 127 0 125 0;
